<svg xmlns="http://www.w3.org/2000/svg" width="340" height="200" viewBox="0 0 340 200"><style>* {
          font-family: 'Segoe UI', Ubuntu, "Helvetica Neue", Sans-Serif
        }</style><g class="gpsc-root"><rect x="1" y="1" rx="5" ry="5" height="99%" width="99.41176470588235%" stroke="#e4e2e2" stroke-width="1" fill="#ffffff" stroke-opacity="1"></rect><text x="30" y="40" class="gpsc-item" style="--gpsc-i: 0; font-size: 22px; fill: #0366d6;">Top Languages by Commit</text><g transform="translate(0,40)"><g transform="translate(40,0)"><rect y="18" width="14" height="14" class="gpsc-item" style="--gpsc-i: 0; stroke-width: 1px;" fill="#3572A5" stroke="#ffffff"></rect><rect y="43.2" width="14" height="14" class="gpsc-item" style="--gpsc-i: 1; stroke-width: 1px;" fill="#e34c26" stroke="#ffffff"></rect><rect y="68.4" width="14" height="14" class="gpsc-item" style="--gpsc-i: 2; stroke-width: 1px;" fill="#f1e05a" stroke="#ffffff"></rect><rect y="93.60000000000002" width="14" height="14" class="gpsc-item" style="--gpsc-i: 3; stroke-width: 1px;" fill="#A97BFF" stroke="#ffffff"></rect><rect y="118.80000000000001" width="14" height="14" class="gpsc-item" style="--gpsc-i: 4; stroke-width: 1px;" fill="#3178c6" stroke="#ffffff"></rect><text x="16.8" y="30" class="gpsc-item" style="--gpsc-i: 0; fill: #586069; font-size: 14px;">Python</text><text x="16.8" y="55.2" class="gpsc-item" style="--gpsc-i: 1; fill: #586069; font-size: 14px;">HTML</text><text x="16.8" y="80.4" class="gpsc-item" style="--gpsc-i: 2; fill: #586069; font-size: 14px;">JavaScript</text><text x="16.8" y="105.60000000000002" class="gpsc-item" style="--gpsc-i: 3; fill: #586069; font-size: 14px;">Kotlin</text><text x="16.8" y="130.8" class="gpsc-item" style="--gpsc-i: 4; fill: #586069; font-size: 14px;">TypeScript</text></g><g transform="translate( 230, 80 )"><g class="arc" style="--gpsc-i: 0;"><path d="M3.67394039744206e-15,-60A60,60,0,1,1,-46.82095398524102,-37.520637893190774L-27.31222315805726,-21.887038771027953A35,35,0,1,0,2.1431318985078682e-15,-35Z" style="fill: #3572A5; stroke-width: 2px;" stroke="#ffffff"></path></g><g class="arc" style="--gpsc-i: 1;"><path d="M-46.82095398524102,-37.520637893190774A60,60,0,0,1,-26.808265222027416,-53.677899696108035L-15.638154712849326,-31.312108156063022A35,35,0,0,0,-27.31222315805726,-21.887038771027953Z" style="fill: #e34c26; stroke-width: 2px;" stroke="#ffffff"></path></g><g class="arc" style="--gpsc-i: 2;"><path d="M-26.808265222027416,-53.677899696108035A60,60,0,0,1,-15.76475513651738,-57.89190354000851L-9.19610716296847,-33.77027706500496A35,35,0,0,0,-15.638154712849326,-31.312108156063022Z" style="fill: #f1e05a; stroke-width: 2px;" stroke="#ffffff"></path></g><g class="arc" style="--gpsc-i: 3;"><path d="M-15.76475513651738,-57.89190354000851A60,60,0,0,1,-4.233734336048571,-59.85044271826035L-2.4696783626950003,-34.91275825231854A35,35,0,0,0,-9.19610716296847,-33.77027706500496Z" style="fill: #A97BFF; stroke-width: 2px;" stroke="#ffffff"></path></g><g class="arc" style="--gpsc-i: 4;"><path d="M-4.233734336048571,-59.85044271826035A60,60,0,0,1,-6.431252637433369e-14,-60L-3.7515640385027985e-14,-35A35,35,0,0,0,-2.4696783626950003,-34.91275825231854Z" style="fill: #3178c6; stroke-width: 2px;" stroke="#ffffff"></path></g></g></g></g></svg>